<?xml version="1.0" encoding="UTF-8"?>
<svg width="55px" height="40px" viewBox="0 0 55 40" version="1.1" xmlns="http://www.w3.org/2000/svg" xmlns:xlink="http://www.w3.org/1999/xlink">
    <title>hand</title>
    <g id="Page-1" stroke="none" stroke-width="1" fill="none" fill-rule="evenodd">
        <g id="Default-Screen" transform="translate(-376.000000, -465.000000)" fill-rule="nonzero">
            <g id="Footer" transform="translate(0.000000, 307.000000)">
                <g id="Infos">
                    <g id="Group-7-Copy" transform="translate(376.250000, 158.000000)">
                        <g id="hand">
                            <path d="M24.6267468,8.69923077 C22.1730533,8.69923077 20.1768954,10.5329808 20.1768954,12.7870192 L20.1768954,15.6724038 C20.1768954,17.92625 22.173158,19.76 24.6267468,19.76 C27.0804404,19.76 29.0767029,17.9263462 29.0767029,15.6724038 L29.0767029,12.7870192 C29.0767029,10.5329808 27.0804404,8.69923077 24.6267468,8.69923077 Z M24.6267468,18.3173077 C23.1261218,18.3173077 21.8906393,17.2571154 21.7595859,15.9097115 C22.5346017,16.5111538 23.5350882,16.8747115 24.6267468,16.8747115 C25.7184055,16.8747115 26.7188919,16.5111538 27.4940125,15.9096154 C27.362959,17.2571154 26.1274765,18.3173077 24.6267468,18.3173077 Z M24.6267468,15.4319231 C23.039032,15.4319231 21.7474435,14.2453846 21.7474435,12.7870192 C21.7474435,11.3284615 23.0391367,10.1419231 24.6267468,10.1419231 C26.2144617,10.1419231 27.5061548,11.3284615 27.5061548,12.7870192 C27.5061548,14.2453846 26.2144617,15.4319231 24.6267468,15.4319231 Z" id="Shape" fill="#FBD68A"></path>
                            <path d="M24.6267468,11.1039423 C24.1930771,11.1039423 23.8414728,11.4268269 23.8414728,11.8252885 L23.8414728,13.7488462 C23.8414728,14.1472115 24.1930771,14.4701923 24.6267468,14.4701923 C25.0604166,14.4701923 25.4120209,14.1473077 25.4120209,13.7488462 L25.4120209,11.8252885 C25.4120209,11.4267308 25.0604166,11.1039423 24.6267468,11.1039423 Z" id="Path" fill="#FBD68A"></path>
                            <path d="M38.7616797,0.0431730769 C34.8645139,0.0431730769 31.6940039,2.95548077 31.6940039,6.53519231 L31.6940039,9.41865385 C31.6940039,9.41932692 31.6940039,9.41990385 31.6940039,9.42057692 C31.6940039,13.0002885 34.8645139,15.9125962 38.7614703,15.9125962 C42.6541351,15.9125962 45.8215048,13.0065385 45.8284134,9.43221154 C45.8284134,9.42836538 45.8290414,9.42461538 45.8290414,9.42076923 L45.8290414,6.53519231 C45.8290414,2.95548077 42.6586362,0.0431730769 38.7616797,0.0431730769 Z M38.7614703,14.47 C36.2730246,14.47 34.1667484,12.9426923 33.4919067,10.8553846 C34.7871588,12.1872115 36.6692206,13.0275 38.7616797,13.0275 C40.8537201,13.0275 42.7355725,12.1875 44.0306152,10.8560577 C43.3556689,12.9429808 41.2496021,14.47 38.7614703,14.47 Z M38.7616797,11.5848077 C35.7305972,11.5848077 33.2646567,9.31951923 33.2646567,6.53528846 C33.2646567,3.75105769 35.7307019,1.48596154 38.7616797,1.48596154 C41.7926575,1.48596154 44.2584933,3.75115385 44.2584933,6.53528846 C44.2584933,9.31951923 41.7926575,11.5848077 38.7616797,11.5848077 Z" id="Shape" fill="#FFFFFF"></path>
                            <path d="M38.7620984,3.89028846 L38.7620984,3.89028846 C38.328324,3.89028846 37.9768243,4.21307692 37.9767197,4.61144231 L37.9758823,8.45903846 C37.9758823,8.85730769 38.3273819,9.18038462 38.7610516,9.18048077 L38.7611563,9.18048077 C39.194826,9.18048077 39.5463257,8.85759615 39.5464304,8.45932692 L39.5472678,4.61173077 C39.5473724,4.21336538 39.1957681,3.89038462 38.7620984,3.89028846 Z" id="Path" fill="#FFFFFF"></path>
                            <path d="M53.1415527,24.4528846 C52.0640253,22.7391346 49.6738696,22.1444231 47.8023801,23.1200962 C47.4621854,23.2741346 43.1179514,25.2352885 39.5376376,26.6192308 C39.1378827,26.77375 38.9503046,27.1967308 39.1184131,27.5639423 C39.2865216,27.9311538 39.7468835,28.1033654 40.1468478,27.9490385 C43.9003992,26.4980769 48.473558,24.4248077 48.5193011,24.4040385 C48.5342697,24.3972115 48.5490289,24.39 48.5634741,24.3824038 C49.6886288,23.7865385 51.1323105,24.1416346 51.781716,25.1747115 C52.5337033,26.3694231 51.3594559,27.6811538 50.7846838,28.2169231 C46.8860526,31.1058654 36.0975888,38.5141346 32.4714273,38.5141346 C28.4521054,38.5141346 17.1732379,36.3192308 14.4149393,35.7701923 L14.4149393,23.9875962 C19.884014,23.2494231 22.7814261,24.1752885 28.8531165,26.1189423 C30.7002167,26.7101923 32.7927805,27.3799038 35.3361807,28.1269231 C35.7153146,28.2786538 36.7671967,28.8225 36.3662903,30.0518269 C36.1226062,30.7991346 35.3370181,31.5126923 34.186532,31.3149038 C32.6405826,31.0483654 23.5426248,29.9148077 23.156059,29.8667308 C22.7264716,29.8128846 22.3306943,30.0899038 22.2724948,30.4847115 C22.2142953,30.8795192 22.5154462,31.2428846 22.9452429,31.2963462 C23.0394507,31.3080769 32.3898853,32.4729808 33.8970001,32.7328846 C34.1309494,32.7731731 34.3579901,32.7922115 34.5774942,32.7922115 C36.2446576,32.7922115 37.4707193,31.6930769 37.8709976,30.4658654 C38.2921063,29.1744231 37.8544589,27.5396154 35.9308411,26.7915385 C35.9281195,26.7903846 35.9252933,26.7892308 35.922467,26.7881731 C35.9200595,26.7872115 35.9177567,26.7861538 35.9152444,26.7851923 C35.9046722,26.7811538 35.8938907,26.7782692 35.8832138,26.7746154 C35.8723276,26.7709615 35.8619647,26.7667308 35.8507645,26.7634615 C33.3101904,26.0179808 31.2169986,25.3478846 29.3701077,24.7567308 C23.3150607,22.8185577 20.1240344,21.7988462 14.4150439,22.5308654 L14.4150439,21.9277885 C14.4150439,21.5293269 14.0634396,21.2064423 13.6297699,21.2064423 L11.2745758,21.2064423 L11.2745758,20.4854808 C11.2745758,20.0870192 10.9229715,19.7641346 10.4893018,19.7641346 L0.785274048,19.7641346 C0.351604309,19.7641346 0,20.0870192 0,20.4854808 L0,36.35 C0,36.7484615 0.351604309,37.0713462 0.785274048,37.0713462 C1.21894379,37.0713462 1.5705481,36.7484615 1.5705481,36.35 L1.5705481,21.2067308 L9.70402771,21.2067308 L9.70402771,38.5141346 L8.13442169,38.5141346 L8.13442169,37.7931731 C8.13442169,37.3947115 7.78281738,37.0718269 7.34914764,37.0718269 C6.91547791,37.0718269 6.5638736,37.3947115 6.5638736,37.7931731 L6.5638736,38.5141346 L0.785274048,38.5141346 C0.351604309,38.5141346 0,38.8370192 0,39.2354808 C0,39.6339423 0.351604309,39.9568269 0.785274048,39.9568269 L10.4893018,39.9568269 C10.9229715,39.9568269 11.2745758,39.6339423 11.2745758,39.2354808 L11.2745758,38.4778846 L13.6296652,38.4778846 C14.063335,38.4778846 14.4149393,38.155 14.4149393,37.7565385 L14.4149393,37.2468269 C17.7004874,37.8989423 28.3936966,39.9568269 32.4714273,39.9568269 C34.6174802,39.9568269 38.4228458,38.2003846 44.1047253,34.5875 C48.202449,31.9818269 51.7693643,29.3407692 51.8048492,29.3144231 C51.8266217,29.2982692 51.8473474,29.2810577 51.8670264,29.2629808 C53.573129,27.6938462 54.0495062,25.8955769 53.1415527,24.4528846 Z M12.8442865,36.3389423 C12.8442865,36.3396154 12.8442865,36.3402885 12.8442865,36.3408654 L12.8442865,37.0353846 L11.2745758,37.0353846 L11.2745758,37.0353846 L11.2745758,22.6490385 L12.8443912,22.6490385 L12.8443912,36.3389423 L12.8442865,36.3389423 Z" id="Shape" fill="#FFFFFF"></path>
                        </g>
                    </g>
                </g>
            </g>
        </g>
    </g>
</svg>