<?xml version="1.0" encoding="UTF-8"?>
<svg width="45px" height="40px" viewBox="0 0 45 40" version="1.1" xmlns="http://www.w3.org/2000/svg" xmlns:xlink="http://www.w3.org/1999/xlink">
    <title>shopping-cart</title>
    <g id="Page-1" stroke="none" stroke-width="1" fill="none" fill-rule="evenodd">
        <g id="Default-Screen" transform="translate(-91.000000, -465.000000)" fill-rule="nonzero">
            <g id="Footer" transform="translate(0.000000, 307.000000)">
                <g id="Infos">
                    <g id="Group-7" transform="translate(91.875000, 158.000000)">
                        <g id="shopping-cart">
                            <path d="M29.603564,33.1918367 C27.5335744,33.1918367 25.9245868,34.7265306 25.9245868,36.5959184 C25.9245868,38.4653061 27.6239669,40 29.603564,40 C31.5831612,40 33.2825413,38.4653061 33.2825413,36.5959184 C33.2825413,34.7265306 31.5831612,33.1918367 29.603564,33.1918367 Z M29.603564,38.2938776 C28.5640496,38.2938776 27.8137913,37.5265306 27.8137913,36.5877551 C27.8137913,35.6489796 28.6634814,34.8816327 29.603564,34.8816327 C30.5436467,34.8816327 31.3933368,35.6489796 31.3933368,36.5877551 C31.3933368,37.5265306 30.5436467,38.2938776 29.603564,38.2938776 Z" id="Shape" fill="#FFFFFF"></path>
                            <path d="M9.52737603,33.1918367 C7.45738636,33.1918367 5.84839876,34.7265306 5.84839876,36.5959184 C5.84839876,38.4653061 7.54777893,40 9.52737603,40 C11.5973657,40 13.2063533,38.4653061 13.2063533,36.5959184 C13.2063533,34.7265306 11.5069731,33.1918367 9.52737603,33.1918367 L9.52737603,33.1918367 Z M9.52737603,38.2938776 C8.48786157,38.2938776 7.73760331,37.5265306 7.73760331,36.5877551 C7.73760331,35.6489796 8.58729339,34.8816327 9.52737603,34.8816327 C10.5668905,34.8816327 11.3171488,35.6489796 11.3171488,36.5877551 C11.3171488,37.5346939 10.4764979,38.2938776 9.52737603,38.2938776 L9.52737603,38.2938776 Z" id="Shape" fill="#FFFFFF"></path>
                            <path d="M38.4620351,0 L36.9976756,5.19183673 L0.0090392562,5.19183673 L6.83367769,23.4530612 C4.54674587,23.755102 2.83832645,25.5020408 2.83832645,27.7469388 C2.83832645,30.2122449 4.90831612,32.1714286 7.54777893,32.1714286 L33.1831095,32.1714286 L33.1831095,30.555102 L7.54777893,30.555102 C5.94783058,30.555102 4.71849174,29.3632653 4.71849174,27.8285714 C4.71849174,26.2938776 6.03822314,25.1020408 7.54777893,25.1020408 L33.1831095,25.1020408 L33.2735021,25.1020408 L39.9625517,1.69795918 L43.7319215,1.69795918 L43.7319215,0 L38.4620351,0 Z M31.8633781,23.4040816 L8.77711777,23.4040816 L2.64850207,6.88979592 L36.482438,6.88979592 L31.8633781,23.4040816 Z" id="Shape" fill="#FFFFFF"></path>
                            <rect id="Rectangle" fill="#FBD68A" x="11.9770145" y="10.8897959" width="1.88920455" height="9.61632653"></rect>
                            <rect id="Rectangle" fill="#FBD68A" x="18.6751033" y="10.8897959" width="1.88920455" height="9.61632653"></rect>
                            <rect id="Rectangle" fill="#FBD68A" x="25.3641529" y="10.8897959" width="1.88920455" height="9.61632653"></rect>
                        </g>
                    </g>
                </g>
            </g>
        </g>
    </g>
</svg>