<?xml version="1.0" encoding="UTF-8"?>
<svg width="45px" height="40px" viewBox="0 0 45 40" version="1.1" xmlns="http://www.w3.org/2000/svg" xmlns:xlink="http://www.w3.org/1999/xlink">
    <title>violin (1)</title>
    <g id="Page-1" stroke="none" stroke-width="1" fill="none" fill-rule="evenodd">
        <g id="Default-Screen" transform="translate(-698.000000, -465.000000)" fill-rule="nonzero">
            <g id="Footer" transform="translate(0.000000, 307.000000)">
                <g id="Infos">
                    <g id="Group-7-Copy-2" transform="translate(698.906250, 158.000000)">
                        <g id="violin-(1)">
                            <path d="M14.204724,24.1434395 C13.9326566,23.8946921 13.491534,23.8946921 13.2195594,24.1434395 C12.947492,24.3921868 12.947492,24.795414 13.2195594,25.0441614 L16.3065817,27.8665817 C16.442569,27.9909979 16.620913,28.0531635 16.799164,28.0531635 C16.9774151,28.0531635 17.155759,27.9909979 17.2917463,27.8665817 C17.5638137,27.6178344 17.5638137,27.2146072 17.2917463,26.9658599 L14.204724,24.1434395 Z" id="Path" fill="#FBD68A"></path>
                            <path d="M10.5922373,27.4462845 C10.4544851,27.3203397 10.2653662,27.2534183 10.0706741,27.2602972 C9.87598195,27.2676858 9.69364384,27.3492994 9.56778132,27.4852654 L7.2135483,30.0291295 C6.96507431,30.2976645 7.00167197,30.6995329 7.29538217,30.9267941 C7.58918524,31.1540552 8.02863588,31.1205096 8.27720276,30.8519745 L10.1424761,28.836603 L12.1587845,30.6800849 L7.48125,34.2987686 C7.18753981,34.5260297 7.15094214,34.9278981 7.39941614,35.1964331 C7.53726115,35.3453079 7.73371815,35.4219958 7.93156847,35.4219958 C8.09049894,35.4219958 8.25035828,35.3724841 8.38123673,35.2712527 L13.6367171,31.2054352 C13.7854299,31.0903609 13.8746948,30.9236518 13.882776,30.7456476 C13.8908572,30.5676433 13.8171046,30.3947346 13.6793524,30.2687898 L10.5922373,27.4462845 Z" id="Path" fill="#FBD68A"></path>
                            <path d="M42.2486598,4.24908705 L43.5051486,3.05324841 C43.7680202,2.80305732 43.7635616,2.4066242 43.4952097,2.16144374 L41.3335324,0.18641189 C41.0652734,-0.0586836518 40.6318604,-0.0625902335 40.3583997,0.177579618 L38.0461518,2.20840764 L36.8261677,1.09299363 C36.5541003,0.844246285 36.1129777,0.844246285 35.8410032,1.09299363 C35.5689358,1.34174098 35.5689358,1.74505308 35.8410032,1.9937155 L37.0412951,3.09104034 L35.9115977,4.08322718 L34.7335987,3.00619958 C34.4616242,2.75745223 34.0205016,2.75745223 33.7484342,3.00619958 C33.4763668,3.25494692 33.4763668,3.6581741 33.7484342,3.90692144 L34.9066481,4.96585987 L25.3971072,13.3178769 C23.7291269,12.4851805 21.7955812,12.127983 19.892224,12.312017 C17.771603,12.5170276 15.7735934,13.3888747 14.2664013,14.766879 L12.7670117,16.1377495 C12.5332139,16.3514225 12.495966,16.6859448 12.6777468,16.9383439 C13.0361067,17.4360085 13.1610403,18.0314225 13.0295117,18.6150318 C12.897983,19.1985563 12.5258758,19.7003822 11.9815552,20.0280255 L9.93440817,21.2602972 C8.81074841,21.9366454 7.29482484,21.6511253 6.555069,20.6237792 C6.43988854,20.4638641 6.25216295,20.3598301 6.04390924,20.3403822 C5.83546975,20.3209342 5.62879512,20.3882803 5.4806396,20.5236518 L3.26285828,22.5513376 C1.6632431,24.0138429 0.652998938,25.8138429 0.230360934,27.7029299 C0.221908174,27.7270488 0.214477176,27.7515924 0.209089703,27.7770701 C0.204166667,27.8004246 0.200915605,27.8237792 0.198872081,27.8469639 C-0.465830679,31.0519745 0.555188429,34.4942675 3.26285828,36.9697665 C5.36908174,38.8954565 8.1693604,39.9559236 11.147983,39.9559236 C14.1266056,39.9559236 16.9268843,38.8954565 19.0331077,36.9697665 L21.2507962,34.9421656 C21.3988588,34.8067941 21.4725186,34.6176645 21.4512473,34.4271762 C21.4299761,34.2366879 21.316189,34.0650531 21.1412818,33.9597452 C20.017715,33.283397 19.7054273,31.8974098 20.4451831,30.8700637 L21.7928875,28.9983864 C22.1512473,28.5007219 22.7001194,28.1605096 23.3383493,28.0402548 C23.9768577,27.92 24.6279061,28.03431 25.1722266,28.3618684 C25.4483811,28.5281529 25.8142649,28.4940127 26.0478769,28.2802548 L27.5473593,26.9093843 C29.0545515,25.53138 30.0081343,23.7046285 30.2323646,21.7657749 C30.4336518,20.0253928 30.0429671,18.2577495 29.1322054,16.7327389 L39.2326964,7.1196603 L40.4106953,8.1966879 C40.5466826,8.32110403 40.7250265,8.38326964 40.9032776,8.38326964 C41.0815287,8.38326964 41.2598726,8.32110403 41.3958599,8.1966879 C41.6679273,7.94794055 41.6679273,7.54471338 41.3958599,7.29596603 L40.1980759,6.20084926 L41.2832803,5.16798301 L42.5033572,6.28348195 C42.6393445,6.40781316 42.8176884,6.47006369 42.9959395,6.47006369 C43.1741906,6.47006369 43.3525345,6.40789809 43.4885218,6.28348195 C43.7605892,6.03473461 43.7605892,5.63142251 43.4885218,5.38276008 L42.2486598,4.24908705 Z M3.74002123,35.567983 C1.90855892,33.6178344 1.14976115,31.1100637 1.46362792,28.6978344 C2.14328556,28.9178769 2.76200902,29.27431 3.28004246,29.7479406 C4.20111465,30.5900637 4.70837314,31.709724 4.70837314,32.9006369 C4.70837314,33.8752442 4.36821921,34.8018684 3.74002123,35.567983 Z M26.5621019,26.0087473 L25.4332404,27.0408493 C24.6945993,26.7283227 23.8692012,26.6397452 23.0572718,26.7926964 C22.0544586,26.9815711 21.1921842,27.5161783 20.6291932,28.2980042 L19.2814889,30.1696815 C18.2770966,31.5645011 18.5071789,33.3802123 19.7275345,34.5335032 L18.0479432,36.0691295 C16.2049628,37.7542251 13.7544984,38.6822081 11.1480759,38.6822081 C8.76207537,38.6822081 6.50713907,37.904034 4.72890127,36.4798301 C5.61792728,35.4670064 6.10187102,34.2180892 6.10187102,32.9007219 C6.10187102,31.3695117 5.44970807,29.9300212 4.26539278,28.8473036 C3.5489517,28.1922718 2.68240446,27.7119321 1.72928609,27.4362633 C2.15759023,25.9757962 2.99710722,24.5960934 4.2482086,23.4523142 L5.92789278,21.9166879 C7.18930467,23.0324416 9.17523885,23.2428025 10.7007298,22.3245011 L12.7478769,21.0923142 C13.6030918,20.5775796 14.1877256,19.7891295 14.3944002,18.8723567 C14.5615977,18.1300212 14.464716,17.3753715 14.122983,16.6999575 L15.2517516,15.6678556 C17.6787155,13.4490021 21.3022558,12.9159236 24.3362394,14.2499363 L16.8421709,20.8317622 C16.7072054,20.9503185 16.6300159,21.1135456 16.6281582,21.2846709 C16.6262075,21.4557962 16.6997744,21.6204671 16.8321391,21.7414013 L19.9191614,24.5638217 C20.049854,24.6833121 20.2270833,24.7504034 20.4117436,24.7504034 C20.4140658,24.7504034 20.416388,24.7504034 20.4187102,24.7504034 C20.6058785,24.7487049 20.7845011,24.6781316 20.9140791,24.5547346 L28.1130441,17.7030149 C29.5720276,20.4769427 28.9890658,23.7898938 26.5621019,26.0087473 Z M20.4016189,23.2035669 L18.3198248,21.3002123 L34.2164942,7.33842887 L35.6725053,8.66921444 L20.4016189,23.2035669 Z M36.6379777,7.75031847 L35.2215366,6.45571125 L40.8314756,1.52866242 L42.0271231,2.6211465 L36.6379777,7.75031847 Z" id="Shape" fill="#FFFFFF"></path>
                            <path d="M12.8907378,13.3610191 C13.0267251,13.4854352 13.205069,13.5476008 13.3833201,13.5476008 C13.5615711,13.5476008 13.7399151,13.4854352 13.8759023,13.3610191 C14.1479697,13.1122718 14.1479697,12.7090446 13.8759023,12.4602972 L5.62638004,4.91779193 L7.2684448,3.41647558 L16.1596338,11.5455626 C16.4317012,11.79431 16.8728238,11.79431 17.1447983,11.5455626 C17.4168657,11.2968153 17.4168657,10.8935881 17.1447983,10.6448408 L7.76102707,2.06539278 C7.10524151,1.46590234 6.23052017,1.13571125 5.29792994,1.13571125 C4.3653397,1.13571125 3.49061837,1.46581741 2.83492569,2.06539278 L2.17811837,2.66590234 C2.04742569,2.78530786 1.97404459,2.94734607 1.97404459,3.11626327 C1.97404459,3.28518047 2.04742569,3.44721868 2.17811837,3.5666242 L12.8907378,13.3610191 Z M3.82018312,2.96611465 C4.21272558,2.60721868 4.73753981,2.40951168 5.29802282,2.40951168 C5.61514066,2.40951168 5.91990446,2.47490446 6.19670913,2.59490446 L4.64112261,4.01707006 L3.65595807,3.11626327 L3.82018312,2.96611465 Z" id="Shape" fill="#FFFFFF"></path>
                            <path d="M39.846311,36.2046709 L40.0105361,36.0545223 C41.3686438,34.8128238 41.3686438,32.7923567 40.0105361,31.5506582 L32.0557458,24.2777919 C31.7836783,24.0290446 31.3425557,24.0290446 31.0705812,24.2777919 C30.7985138,24.5265393 30.7985138,24.9297665 31.0705812,25.1785138 L38.5326964,32.0010191 L36.8906316,33.5023355 L30.0705547,27.2668365 C29.7984873,27.0180892 29.3573646,27.0180892 29.0853901,27.2668365 C28.8133227,27.5155839 28.8133227,27.918811 29.0853901,28.1675584 L38.3684713,36.6549469 C38.3685642,36.6550318 40.5328424,38.6338004 40.5328424,38.6338004 C40.6688296,38.7582166 40.8471736,38.8203822 41.0254246,38.8203822 C41.2036757,38.8203822 41.3820196,38.7582166 41.5180069,38.6338004 C41.7900743,38.3850531 41.7900743,37.9818259 41.5180069,37.7330786 L39.846311,36.2046709 Z M39.0253715,35.1537155 L38.8611465,35.3038641 L37.8758891,34.4030573 L39.4317542,32.9806369 C39.8012606,33.6906157 39.6673169,34.5667941 39.0253715,35.1537155 Z" id="Shape" fill="#FFFFFF"></path>
                        </g>
                    </g>
                </g>
            </g>
        </g>
    </g>
</svg>